<?xml version="1.0" standalone="no"?>
<!DOCTYPE svg PUBLIC "-//W3C//DTD SVG 20010904//EN"
 "http://www.w3.org/TR/2001/REC-SVG-20010904/DTD/svg10.dtd">
<svg version="1.0" xmlns="http://www.w3.org/2000/svg"
 width="800.000000pt" height="800.000000pt" viewBox="0 0 800.000000 800.000000"
 preserveAspectRatio="xMidYMid meet">
<metadata>
Created by potrace 1.11, written by Peter Selinger 2001-2013
</metadata>
<g transform="translate(0.000000,800.000000) scale(0.100000,-0.100000)"
fill="#000000" stroke="none">
<path d="M5620 6494 c-8 -3 -58 -19 -110 -36 -52 -17 -189 -66 -305 -110 -115
-44 -229 -87 -253 -95 l-43 -15 28 -17 c15 -10 75 -42 133 -73 58 -30 121 -64
140 -75 19 -11 60 -32 90 -48 30 -16 96 -53 145 -81 123 -71 224 -127 260
-145 24 -12 32 -24 39 -62 7 -41 6 -50 -10 -62 -29 -22 -5 -18 82 14 260 95
503 180 526 185 15 4 35 17 44 31 19 30 21 95 3 105 -8 5 -34 22 -59 39 -110
76 -482 322 -555 366 -44 27 -82 52 -85 56 -6 7 -47 29 -52 28 -2 0 -10 -3
-18 -5z m40 -55 c0 -13 -27 -11 -36 3 -4 7 -3 8 4 4 7 -4 12 -2 12 4 0 6 5 8
10 5 6 -3 10 -10 10 -16z"/>
<path d="M4610 6126 c0 -3 9 -10 20 -16 11 -6 20 -8 20 -6 0 3 -9 10 -20 16
-11 6 -20 8 -20 6z"/>
<path d="M4790 6107 c0 -4 269 -232 384 -325 23 -19 58 -48 80 -65 39 -32 80
-59 61 -40 -5 6 -68 59 -140 118 -71 60 -132 111 -135 114 -3 4 -25 22 -50 41
-25 19 -50 39 -56 45 -51 47 -144 119 -144 112z"/>
<path d="M4660 6091 c0 -6 4 -11 9 -11 4 0 64 -48 133 -107 68 -60 146 -126
174 -147 27 -22 54 -44 59 -51 15 -17 165 -135 172 -135 8 0 24 -15 -152 135
-82 69 -188 159 -235 199 -114 97 -160 131 -160 117z"/>
<path d="M3494 5950 c-106 -9 -334 -47 -344 -57 -3 -3 22 -2 55 2 33 5 79 8
103 7 23 0 42 3 42 7 0 17 314 34 515 27 137 -4 195 -3 183 4 -22 13 -426 21
-554 10z"/>
<path d="M3480 5895 c-322 -35 -628 -139 -810 -275 -30 -22 -61 -40 -69 -40
-24 0 -113 -101 -149 -167 -18 -35 -36 -89 -43 -131 -11 -65 -10 -77 11 -142
12 -38 28 -70 34 -70 11 0 187 62 411 145 455 167 553 201 707 245 273 76 363
121 419 208 27 42 30 53 26 103 -3 31 -9 64 -15 75 -6 10 -13 26 -15 35 -4 12
-24 18 -74 22 -103 10 -304 6 -433 -8z m-950 -421 c-22 -31 -42 -72 -46 -90
-7 -36 -24 -57 -24 -29 0 22 44 106 75 144 41 48 39 37 -5 -25z"/>
<path d="M3118 5883 c7 -3 16 -2 19 1 4 3 -2 6 -13 5 -11 0 -14 -3 -6 -6z"/>
<path d="M5361 5607 c-6 -15 -14 -27 -18 -26 -21 4 -33 -3 -33 -17 0 -13 3
-14 15 -4 8 7 24 10 36 7 25 -7 36 16 21 46 -10 22 -10 22 -21 -6z"/>
<path d="M5411 5604 c0 -11 3 -14 6 -6 3 7 2 16 -1 19 -3 4 -6 -2 -5 -13z"/>
<path d="M5265 5578 c-3 -9 -17 -19 -31 -22 -13 -4 -49 -18 -79 -31 -29 -14
-56 -25 -60 -25 -3 0 -46 -16 -95 -35 -49 -19 -99 -35 -110 -35 -14 0 -20 -7
-20 -24 0 -20 -6 -24 -35 -28 -20 -2 -53 2 -73 9 -87 31 -192 54 -257 57 -38
1 -114 6 -167 11 -69 6 -116 4 -160 -5 -69 -14 -247 -68 -263 -80 -5 -4 -46
-22 -90 -40 -44 -18 -84 -37 -90 -41 -5 -5 -19 -9 -32 -9 -13 0 -23 -3 -23 -8
0 -4 -28 -18 -62 -31 -35 -14 -106 -42 -158 -64 -119 -49 -243 -96 -295 -111
-22 -7 -53 -18 -70 -25 -16 -7 -59 -24 -95 -37 -36 -14 -74 -29 -85 -34 -11
-4 -58 -23 -105 -40 -47 -18 -99 -39 -115 -47 -17 -7 -40 -15 -52 -17 -11 -3
-39 -14 -61 -25 -23 -12 -50 -21 -60 -21 -10 0 -22 -3 -26 -7 -4 -5 -11 -8
-14 -9 -10 -1 -57 -19 -114 -44 -78 -32 -158 -64 -193 -75 -68 -23 -126 -45
-166 -64 -21 -11 -62 -24 -91 -31 -29 -7 -56 -17 -59 -22 -4 -6 -22 -10 -42
-11 -20 0 -34 -5 -31 -9 3 -4 2 -8 -3 -8 -58 -1 -177 -11 -183 -15 -5 -3 -10
0 -12 6 -4 12 -45 -6 -60 -26 -22 -29 -7 -35 93 -35 116 0 132 5 510 146 124
46 233 84 241 84 12 0 16 -21 21 -102 24 -392 37 -572 42 -576 11 -11 12 6 4
103 -4 55 -13 192 -19 305 -5 113 -12 219 -15 237 -2 20 1 36 11 43 8 7 73 36
146 65 l132 53 47 -23 c26 -14 70 -33 97 -43 l51 -20 6 30 c9 37 27 44 73 29
243 -80 445 -111 712 -112 373 0 647 53 911 180 213 101 353 243 384 389 9 42
25 32 25 -16 0 -50 -22 -128 -50 -177 -20 -35 -20 -38 -3 -23 26 24 63 99 63
129 0 27 16 57 25 48 3 -4 1 -28 -5 -55 -12 -52 -44 -114 -80 -151 -11 -13
-17 -23 -13 -23 19 0 88 92 124 166 33 69 39 91 39 147 0 36 -4 77 -10 92 -10
25 -12 26 -67 19 -68 -7 -74 -10 -66 -29 4 -11 -2 -15 -21 -15 -14 0 -29 0
-33 0 -15 0 -8 25 7 26 8 0 31 8 50 16 19 9 67 28 105 42 39 14 84 31 100 37
17 7 34 11 39 10 5 -1 6 4 3 11 -3 10 5 12 34 10 44 -5 55 9 40 49 -7 20 -10
21 -16 7z"/>
<path d="M2420 5510 c-12 -16 -19 -30 -16 -30 2 0 14 14 26 30 12 17 19 30 16
30 -2 0 -14 -13 -26 -30z"/>
<path d="M2381 5447 c-13 -21 -12 -21 5 -5 10 10 16 20 13 22 -3 3 -11 -5 -18
-17z"/>
<path d="M2346 5255 c3 -91 19 -203 29 -213 4 -4 6 14 4 41 -3 26 -3 47 -2 47
2 0 9 -16 17 -35 8 -19 20 -35 25 -35 15 0 14 8 -10 57 -11 23 -24 64 -28 90
-8 47 -8 48 -17 18 -8 -27 -10 -22 -15 40 l-6 70 3 -80z"/>
<path d="M4958 4778 c2 -10 11 -18 18 -18 18 0 18 -5 -2 -46 -17 -35 -28 -42
-39 -24 -13 21 -33 8 -49 -30 -19 -47 -21 -148 -4 -185 13 -28 30 -34 23 -7
-3 9 2 2 10 -15 8 -18 21 -33 28 -34 6 0 31 -2 55 -4 26 -2 40 1 36 7 -4 6
-21 8 -39 5 -28 -5 -34 -2 -39 16 -14 54 -10 60 43 53 l48 -6 7 46 c10 74 8
79 -20 82 -37 3 -46 11 -38 34 4 14 3 18 -5 13 -14 -8 -4 42 12 63 14 18 27
15 20 -5 -7 -19 -5 -18 16 9 11 15 7 20 -37 41 -45 22 -49 22 -44 5z"/>
<path d="M1840 4773 c0 -6 -19 -18 -42 -26 -24 -8 -42 -20 -40 -26 1 -6 -2
-11 -8 -11 -5 0 -10 -4 -10 -10 0 -18 77 -31 120 -20 34 9 40 15 40 37 0 19
-3 24 -11 16 -5 -5 -21 -8 -34 -5 -21 4 -23 7 -14 24 6 11 8 22 5 26 -3 3 -6
0 -6 -5z"/>
<path d="M4540 4743 c-339 -112 -734 -155 -1090 -119 -91 9 -190 22 -220 28
-30 5 -68 12 -85 14 -71 10 16 -15 110 -31 55 -9 102 -18 106 -20 3 -3 74 -9
157 -15 273 -19 605 11 852 76 113 30 230 70 244 84 12 12 17 13 -74 -17z"/>
<path d="M5068 4733 c6 -2 18 -2 25 0 6 3 1 5 -13 5 -14 0 -19 -2 -12 -5z"/>
<path d="M4550 4715 c-25 -7 -76 -23 -115 -35 -314 -96 -710 -125 -1104 -80
-96 11 -176 18 -178 16 -5 -4 89 -26 112 -26 18 0 20 -16 3 -24 -7 -3 11 -2
40 1 50 5 52 5 52 -18 0 -13 9 -30 20 -37 11 -7 20 -17 20 -22 0 -6 -9 -10
-20 -10 -11 0 -20 -7 -20 -15 0 -11 11 -15 40 -15 l40 0 0 -65 0 -65 40 0 40
0 0 -80 0 -80 40 0 40 0 0 -40 0 -40 -40 0 -40 0 0 -40 0 -40 -40 0 c-22 0
-40 -4 -40 -8 0 -5 -23 -19 -52 -33 -48 -22 -61 -24 -200 -21 -87 1 -148 -1
-148 -7 0 -5 18 -24 40 -41 55 -43 54 -65 -3 -57 -104 14 -137 47 -101 102 15
22 14 24 -10 40 -36 24 -59 16 -67 -23 -9 -44 -12 -46 -56 -31 -50 16 -97 51
-81 60 7 5 -1 20 -25 45 -20 21 -39 35 -43 32 -12 -13 7 -60 26 -65 11 -3 16
-11 13 -19 -3 -8 -1 -14 4 -14 5 0 42 -21 82 -46 51 -33 69 -50 62 -57 -8 -8
-27 -6 -64 6 -30 9 -57 17 -60 17 -16 0 -5 -28 18 -50 14 -13 23 -31 20 -39
-2 -9 0 -23 5 -31 5 -8 10 -12 10 -9 0 4 39 -30 86 -75 166 -156 296 -353 362
-551 42 -126 53 -168 73 -302 50 -330 -22 -682 -191 -934 -89 -133 -278 -288
-386 -318 -58 -16 -51 -7 22 28 219 105 347 252 468 541 56 133 76 233 83 415
11 308 -43 533 -192 797 -92 162 -210 293 -347 386 -26 18 -48 37 -48 43 0 6
-48 33 -107 60 -59 28 -112 58 -119 67 -11 15 -32 17 -168 15 -196 -4 -235 -6
-229 -15 2 -5 -5 -8 -17 -8 -22 0 -126 -55 -170 -90 -36 -28 -16 -25 29 6 44
28 174 84 199 84 13 0 12 -3 -3 -20 -10 -11 -27 -20 -37 -20 -11 0 -17 -4 -14
-9 4 -5 -4 -7 -16 -3 -14 3 -19 2 -14 -6 4 -8 0 -12 -11 -12 -11 0 -28 -6 -38
-14 -11 -8 -26 -11 -34 -8 -9 3 -12 1 -7 -6 4 -7 2 -10 -6 -7 -7 3 -24 -4 -38
-15 -21 -17 -21 -19 -5 -14 15 4 17 3 6 -4 -8 -6 -20 -8 -26 -6 -21 8 -173
-144 -230 -231 -106 -159 -163 -317 -191 -529 -38 -288 15 -605 147 -869 46
-93 104 -187 115 -187 7 0 -3 17 -32 56 -37 51 -103 189 -135 282 -41 124 -35
124 15 0 76 -186 155 -313 273 -439 117 -124 271 -225 401 -265 31 -9 62 -23
68 -30 20 -25 136 -37 231 -25 204 27 345 97 485 243 64 66 197 247 235 318
13 25 37 63 53 85 50 70 65 148 65 340 0 189 -17 292 -79 474 -106 308 -214
490 -402 673 -52 50 -92 93 -90 95 19 19 146 -96 286 -257 36 -41 90 -102 121
-135 30 -33 65 -70 76 -83 29 -33 79 -168 110 -303 25 -106 27 -130 27 -329 0
-201 -2 -222 -27 -324 -101 -406 -324 -680 -634 -785 -145 -48 -259 -57 -432
-35 -102 13 -330 118 -409 188 -18 16 -24 17 -35 6 -8 -8 -8 -11 0 -6 6 3 30
-12 52 -34 26 -26 46 -38 54 -34 8 5 7 2 -2 -9 -12 -15 -10 -18 18 -28 17 -6
31 -15 31 -20 0 -5 12 -15 28 -21 15 -7 41 -22 57 -34 17 -12 47 -25 68 -28
21 -4 35 -11 32 -17 -4 -5 3 -9 14 -9 11 0 23 -5 26 -10 4 -6 11 -8 16 -5 5 4
9 2 9 -3 0 -5 35 -9 78 -9 42 0 106 -7 142 -16 115 -29 210 -16 210 28 0 7 10
16 23 18 12 3 -7 3 -43 1 l-65 -3 50 10 c28 5 71 17 97 25 26 9 51 13 56 10 5
-3 16 4 25 15 9 10 23 19 30 19 7 0 36 15 64 34 28 19 49 28 47 21 -3 -7 -32
-26 -65 -43 -34 -18 -54 -34 -48 -38 11 -6 78 9 111 27 10 5 31 9 48 9 16 0
30 4 30 9 0 5 17 12 38 16 37 7 50 12 154 59 31 14 63 26 71 26 8 0 20 7 27
15 7 8 23 15 35 15 12 0 28 7 35 15 7 8 18 15 24 15 7 0 29 9 51 20 22 11 45
20 51 20 7 0 19 6 26 13 16 15 162 73 206 82 18 4 39 13 46 21 8 7 74 25 147
40 129 25 295 71 287 80 -3 2 -27 -3 -54 -11 -27 -8 -74 -19 -104 -25 -30 -6
-66 -12 -80 -15 -105 -23 -464 -33 -520 -15 -15 5 49 8 155 9 364 2 655 77
893 228 241 154 375 333 389 520 8 100 -10 94 -25 -9 -24 -165 -147 -353 -296
-452 -186 -123 -423 -208 -675 -241 -120 -16 -347 -18 -441 -5 -53 7 -52 7 33
9 48 0 87 5 87 10 0 5 -19 7 -42 4 -31 -3 -39 -2 -28 6 16 11 16 12 -23 29
-17 7 -34 25 -40 42 -11 30 -27 41 -27 19 0 -8 -5 -8 -15 1 -9 7 -15 30 -16
54 -1 39 -1 39 -9 12 -5 -15 -15 -36 -23 -45 -20 -22 -57 -108 -49 -115 3 -3
-2 -6 -10 -6 -13 0 -12 7 6 43 52 104 84 218 107 376 15 109 6 420 -16 516
-24 108 -73 260 -112 348 -37 85 -38 114 -1 51 13 -22 23 -41 24 -44 1 -5 14
-39 28 -70 8 -19 -2 32 -11 56 -5 13 -3 15 8 10 8 -4 5 0 -6 9 -18 14 -20 26
-17 113 3 101 23 226 30 184 2 -12 7 -20 12 -17 18 11 70 -19 92 -53 33 -54
37 -73 39 -208 2 -137 11 -170 28 -106 11 37 30 396 26 482 -1 19 -2 63 -3 98
-2 48 -5 62 -17 62 -8 0 -15 5 -15 12 0 7 -12 25 -27 40 l-27 28 27 0 c25 0
27 3 27 40 l0 40 40 0 40 0 0 -80 0 -80 40 0 40 0 0 40 0 40 40 0 40 0 0 -40
0 -40 40 0 40 0 0 -55 0 -55 80 0 c64 0 80 3 80 15 0 13 29 15 200 15 l200 0
0 -40 c0 -29 4 -40 15 -40 11 0 15 11 15 40 0 29 -4 40 -15 40 -11 0 -15 11
-15 40 l0 40 40 0 40 0 0 40 c0 29 -4 40 -15 40 -11 0 -15 11 -15 40 0 29 4
40 15 40 12 0 15 19 15 113 0 180 21 580 31 599 5 10 8 18 7 17 -2 0 -23 -6
-48 -14z m-1356 -1135 c24 -30 51 -67 61 -82 30 -47 9 -31 -29 21 -39 56 -68
90 -108 133 -16 16 -28 32 -28 35 0 12 61 -51 104 -107z m-53 13 c13 -16 12
-17 -3 -4 -17 13 -22 21 -14 21 2 0 10 -8 17 -17z m347 -1610 c-10 -2 -28 -2
-40 0 -13 2 -5 4 17 4 22 1 32 -1 23 -4z m-68 -39 c0 -2 -13 -4 -30 -4 -16 0
-30 4 -30 8 0 5 14 7 30 4 17 -2 30 -6 30 -8z m63 -11 c-7 -2 -21 -2 -30 0
-10 3 -4 5 12 5 17 0 24 -2 18 -5z m-453 -116 c0 -2 -12 -14 -27 -28 l-28 -24
24 28 c23 25 31 32 31 24z m240 -26 c-5 -11 -15 -23 -22 -27 -7 -5 -8 -2 -3 7
21 37 44 55 25 20z m-71 -78 c-24 -30 -49 -53 -49 -46 0 8 51 63 58 63 2 0 -2
-8 -9 -17z m-100 -92 c-13 -11 -28 -20 -32 -21 -4 0 5 11 20 24 15 13 30 23
32 20 2 -2 -7 -12 -20 -23z m-672 -157 c-3 -3 -12 -4 -19 -1 -8 3 -5 6 6 6 11
1 17 -2 13 -5z m79 -12 c-10 -2 -22 0 -28 6 -6 6 0 7 19 4 21 -5 23 -7 9 -10z
m153 -8 c2 -2 -16 -4 -42 -4 -25 0 -48 4 -51 9 -5 8 84 3 93 -5z"/>
<path d="M3030 4690 c8 -5 22 -10 30 -10 13 0 13 1 0 10 -8 5 -22 10 -30 10
-13 0 -13 -1 0 -10z"/>
<path d="M3088 4673 c7 -3 16 -2 19 1 4 3 -2 6 -13 5 -11 0 -14 -3 -6 -6z"/>
<path d="M5101 4654 c0 -11 3 -14 6 -6 3 7 2 16 -1 19 -3 4 -6 -2 -5 -13z"/>
<path d="M5089 4556 c7 -8 21 -12 31 -9 27 7 15 23 -17 23 -21 0 -23 -3 -14
-14z"/>
<path d="M1440 4523 c0 -12 44 -43 60 -43 6 0 9 4 5 9 -3 5 -1 12 5 16 12 7 4
25 -11 25 -5 0 -9 -7 -9 -15 0 -19 -9 -19 -32 2 -10 9 -18 11 -18 6z"/>
<path d="M5136 4511 c14 -14 74 -24 74 -13 0 10 -33 22 -64 22 -12 0 -16 -3
-10 -9z"/>
<path d="M2220 3960 c-11 -8 -7 -9 15 -4 37 8 45 14 19 14 -10 0 -26 -5 -34
-10z"/>
<path d="M2449 3959 c13 -5 35 -18 50 -28 22 -16 133 -61 150 -61 3 0 -15 17
-39 38 -30 26 -60 41 -99 49 -66 14 -95 15 -62 2z"/>
<path d="M3410 3340 c0 -5 5 -10 10 -10 6 0 10 5 10 10 0 6 -4 10 -10 10 -5 0
-10 -4 -10 -10z"/>
<path d="M4925 2428 c-22 -39 -68 -99 -104 -134 -35 -35 -60 -64 -55 -64 19 0
153 154 179 206 40 79 27 74 -20 -8z"/>
<path d="M4729 2203 c-13 -17 -13 -17 6 -3 11 8 22 16 24 17 2 2 0 3 -6 3 -6
0 -17 -8 -24 -17z"/>
<path d="M4680 2169 c-22 -18 -22 -19 -3 -10 12 6 25 16 28 21 9 15 3 12 -25
-11z"/>
<path d="M3511 2134 c0 -11 3 -14 6 -6 3 7 2 16 -1 19 -3 4 -6 -2 -5 -13z"/>
<path d="M4617 2131 c-41 -26 -46 -36 -10 -17 17 9 35 20 38 26 8 13 6 12 -28
-9z"/>
<path d="M4550 2089 c0 -5 5 -7 10 -4 6 3 10 8 10 11 0 2 -4 4 -10 4 -5 0 -10
-5 -10 -11z"/>
<path d="M4490 2060 c-19 -11 -30 -19 -25 -19 6 0 26 8 45 19 19 11 31 19 25
19 -5 0 -26 -8 -45 -19z"/>
<path d="M4409 2026 c-15 -7 -39 -18 -55 -24 -16 -6 -22 -11 -14 -11 17 -1
121 47 105 48 -5 1 -22 -5 -36 -13z"/>
<path d="M1776 1911 c27 -41 117 -141 122 -136 3 3 -13 24 -35 47 -23 24 -54
57 -70 74 -15 16 -23 23 -17 15z"/>
<path d="M1930 1745 c13 -14 26 -25 28 -25 3 0 -5 11 -18 25 -13 14 -26 25
-28 25 -3 0 5 -11 18 -25z"/>
</g>
</svg>
